<svg xmlns="http://www.w3.org/2000/svg" width="760" height="360" viewBox="0 0 760 360" role="img" aria-label="On the full dial, K* grows along k/2; both k-1 and our own first fit 2k/3 are falsified">
  <!-- paper card -->
  <rect x="1" y="1" width="758" height="358" rx="10" fill="#FBF8F1" stroke="#D8D2C4" stroke-width="1.5"/>

  <text x="380" y="38" text-anchor="middle" font-family="Georgia, serif" font-size="15" fill="#3A3630">the notebook's dimension vs. hidden states — now on the full dial</text>

  <!-- axes -->
  <g stroke="#B8B2A4" stroke-width="1.2" fill="none">
    <path d="M 90 290 L 710 290"/>
    <path d="M 90 290 L 90 60"/>
  </g>
  <text x="400" y="320" text-anchor="middle" font-family="Georgia, serif" font-style="italic" font-size="13" fill="#6E6758">k — hidden states of the little world (the dial)</text>
  <text x="46" y="175" text-anchor="middle" font-family="Georgia, serif" font-style="italic" font-size="13" fill="#6E6758" transform="rotate(-90 46 175)">K*</text>

  <!-- x ticks -->
  <g font-family="Georgia, serif" font-size="12" fill="#8A8272" text-anchor="middle">
    <text x="127" y="306">6</text><text x="238" y="306">12</text><text x="349" y="306">18</text><text x="460" y="306">24</text><text x="571" y="306">30</text><text x="682" y="306">36</text>
  </g>
  <!-- y ticks + grid -->
  <g font-family="Georgia, serif" font-size="12" fill="#8A8272" text-anchor="end">
    <text x="82" y="234">5</text><text x="82" y="174">10</text><text x="82" y="114">15</text>
  </g>
  <g stroke="#EDE9DF" stroke-width="1">
    <line x1="90" y1="230" x2="710" y2="230"/><line x1="90" y1="170" x2="710" y2="170"/><line x1="90" y1="110" x2="710" y2="110"/>
  </g>

  <!-- k-1: dashed red, exits the top early -->
  <line x1="127" y1="230" x2="373" y2="70" stroke="#A65A4A" stroke-width="2" stroke-dasharray="8 5"/>
  <text x="150" y="96" font-family="Georgia, serif" font-style="italic" font-size="12.5" fill="#A65A4A">k − 1 : falsified in round four</text>
  <text x="150" y="112" font-family="Georgia, serif" font-style="italic" font-size="12.5" fill="#A65A4A">(leaves the chart, and the data, behind)</text>

  <!-- 2k/3: dotted gray, our first fit, falls at large k -->
  <line x1="127" y1="242" x2="525" y2="70" stroke="#8A8272" stroke-width="2" stroke-dasharray="2 5"/>
  <text x="430" y="86" font-family="Georgia, serif" font-style="italic" font-size="12.5" fill="#8A8272">2k/3 : our own first fit — fell when the dial passed 18</text>

  <!-- k/2: solid blue, the law -->
  <line x1="127" y1="254" x2="682" y2="74" stroke="#4A6FA5" stroke-width="2.6"/>
  <text x="560" y="138" text-anchor="middle" font-family="Georgia, serif" font-style="italic" font-size="13" fill="#4A6FA5">K* ≈ k/2 — the law</text>

  <!-- measured points (means, 2-3 seeds) -->
  <g fill="#3A3630">
    <circle cx="127" cy="222" r="6"/>
    <circle cx="183" cy="230" r="6"/>
    <circle cx="238" cy="206" r="6"/>
    <circle cx="294" cy="182" r="6"/>
    <circle cx="349" cy="166" r="6"/>
    <circle cx="460" cy="140" r="6"/>
    <circle cx="571" cy="104" r="6"/>
    <circle cx="682" cy="74" r="6"/>
  </g>

  <!-- the extension marker -->
  <line x1="404" y1="60" x2="404" y2="290" stroke="#D8D2C4" stroke-width="1.2" stroke-dasharray="3 6"/>
  <text x="545" y="200" text-anchor="middle" font-family="Georgia, serif" font-style="italic" font-size="12" fill="#6E6758">→ the extension that told the truth</text>
  <text x="545" y="216" text-anchor="middle" font-family="Georgia, serif" font-style="italic" font-size="12" fill="#6E6758">(k/2 exactly : 12.5, 15.5, 18)</text>

  <!-- legend -->
  <g font-family="Georgia, serif" font-style="italic" font-size="12" fill="#6E6758">
    <circle cx="120" cy="66" r="5" fill="#3A3630"/>
    <text x="132" y="70">measured, 2–3 seeds per point (fit 0.44·k + 2, R² = 0.984)</text>
  </g>

  <!-- caption -->
  <text x="380" y="345" text-anchor="middle" font-family="Georgia, serif" font-style="italic" font-size="14" fill="#3A3630">Extend the dial and the pretty two-thirds falls to one half. The gap to the geometric k−1 keeps growing.</text>
</svg>
