<svg xmlns="http://www.w3.org/2000/svg" width="760" height="360" viewBox="0 0 760 360" role="img" aria-label="K* grows near-linearly with k along 2k/3; the k-1 prediction is falsified with a growing gap">
  <!-- paper card -->
  <rect x="1" y="1" width="758" height="358" rx="10" fill="#FBF8F1" stroke="#D8D2C4" stroke-width="1.5"/>

  <text x="380" y="38" text-anchor="middle" font-family="Georgia, serif" font-size="15" fill="#3A3630">the notebook's dimension vs. the number of hidden states</text>

  <!-- axes -->
  <g stroke="#B8B2A4" stroke-width="1.2" fill="none">
    <path d="M 90 290 L 700 290"/>
    <path d="M 90 290 L 90 60"/>
  </g>
  <text x="395" y="320" text-anchor="middle" font-family="Georgia, serif" font-style="italic" font-size="13" fill="#6E6758">k — hidden states of the little world (the dial)</text>
  <text x="46" y="175" text-anchor="middle" font-family="Georgia, serif" font-style="italic" font-size="13" fill="#6E6758" transform="rotate(-90 46 175)">K*</text>

  <!-- x ticks -->
  <g font-family="Georgia, serif" font-size="12" fill="#8A8272" text-anchor="middle">
    <text x="195" y="306">6</text><text x="300" y="306">9</text><text x="405" y="306">12</text><text x="510" y="306">15</text><text x="615" y="306">18</text>
  </g>
  <!-- y ticks -->
  <g font-family="Georgia, serif" font-size="12" fill="#8A8272" text-anchor="end">
    <text x="82" y="234">5</text><text x="82" y="174">10</text><text x="82" y="114">15</text>
  </g>
  <g stroke="#EDE9DF" stroke-width="1">
    <line x1="90" y1="230" x2="700" y2="230"/><line x1="90" y1="170" x2="700" y2="170"/><line x1="90" y1="110" x2="700" y2="110"/>
  </g>

  <!-- k-1 prediction: dashed, falsified -->
  <line x1="125" y1="254" x2="650" y2="74" stroke="#A65A4A" stroke-width="2" stroke-dasharray="8 5"/>
  <text x="500" y="96" font-family="Georgia, serif" font-style="italic" font-size="13" fill="#A65A4A">k − 1 : the beautiful prediction (falsified)</text>

  <!-- 2k/3 law: solid -->
  <line x1="125" y1="258" x2="650" y2="138" stroke="#4A6FA5" stroke-width="2.4"/>
  <text x="560" y="168" font-family="Georgia, serif" font-style="italic" font-size="13" fill="#4A6FA5">≈ 2k/3 : the law that survived</text>

  <!-- conclusive round points (filled) -->
  <g fill="#3A3630">
    <circle cx="195" cy="230" r="6"/>
    <circle cx="405" cy="206" r="6"/>
    <circle cx="510" cy="182" r="6"/>
    <circle cx="615" cy="158" r="6"/>
  </g>
  <!-- fresh-seed replication (open) -->
  <g fill="none" stroke="#3A3630" stroke-width="2">
    <circle cx="300" cy="230" r="6"/>
    <circle cx="413" cy="206" r="6"/>
    <circle cx="518" cy="182" r="6"/>
  </g>

  <!-- the growing gap annotation at k=18 -->
  <line x1="615" y1="154" x2="615" y2="86" stroke="#A65A4A" stroke-width="1.2" stroke-dasharray="2 3"/>
  <text x="626" y="120" font-family="Georgia, serif" font-style="italic" font-size="12" fill="#A65A4A">17 predicted,</text>
  <text x="626" y="136" font-family="Georgia, serif" font-style="italic" font-size="12" fill="#A65A4A">11 measured</text>

  <!-- legend -->
  <g font-family="Georgia, serif" font-style="italic" font-size="12" fill="#6E6758">
    <circle cx="120" cy="80" r="5" fill="#3A3630"/>
    <text x="132" y="84">conclusive round (sanity passed)</text>
    <circle cx="120" cy="100" r="5" fill="none" stroke="#3A3630" stroke-width="2"/>
    <text x="132" y="104">fresh-seed replication</text>
  </g>

  <!-- caption -->
  <text x="380" y="345" text-anchor="middle" font-family="Georgia, serif" font-style="italic" font-size="14" fill="#3A3630">The belief is geometrically (k−1)-dimensional — the capability leans on a compressed two-thirds of it.</text>
</svg>
